<?xml version="1.0" encoding="UTF-8" standalone="no"?>
<!DOCTYPE svg PUBLIC "-//W3C//DTD SVG 1.1//EN"
 "http://www.w3.org/Graphics/SVG/1.1/DTD/svg11.dtd">
<!-- Generated by graphviz version 2.43.0 (0)
 -->
<!-- Title: diagstate_mod::diag_allocate Pages: 1 -->
<svg width="626pt" height="38pt"
 viewBox="0.00 0.00 626.00 38.00" xmlns="http://www.w3.org/2000/svg" xmlns:xlink="http://www.w3.org/1999/xlink">
<g id="graph0" class="graph" transform="scale(1 1) rotate(0) translate(4 34)">
<title>diagstate_mod::diag_allocate</title>
<!-- Node1 -->
<g id="Node000001" class="node">
<title>Node1</title>
<g id="a_Node000001"><a xlink:title="Allocate memory for the diagnostic state variables.">
<polygon fill="#999999" stroke="#666666" points="116,-30 0,-30 0,0 116,0 116,-30"/>
<text text-anchor="start" x="8" y="-18" font-family="Helvetica,sans-Serif" font-size="10.00">diagstate_mod::diag</text>
<text text-anchor="middle" x="58" y="-7" font-family="Helvetica,sans-Serif" font-size="10.00">_allocate</text>
</a>
</g>
</g>
<!-- Node2 -->
<g id="Node000002" class="node">
<title>Node2</title>
<g id="a_Node000002"><a xlink:href="group__core__modules.html#gadf8890c67762a792dcff25da9d3e10f7" target="_top" xlink:title="CC_Error.">
<polygon fill="white" stroke="#666666" points="264,-24.5 152,-24.5 152,-5.5 264,-5.5 264,-24.5"/>
<text text-anchor="middle" x="208" y="-12.5" font-family="Helvetica,sans-Serif" font-size="10.00">error_mod::cc_error</text>
</a>
</g>
</g>
<!-- Node1&#45;&gt;Node2 -->
<g id="edge1_Node000001_Node000002" class="edge">
<title>Node1&#45;&gt;Node2</title>
<g id="a_edge1_Node000001_Node000002"><a xlink:title=" ">
<path fill="none" stroke="#63b8ff" d="M116.22,-15C124.55,-15 133.17,-15 141.65,-15"/>
<polygon fill="#63b8ff" stroke="#63b8ff" points="141.88,-18.5 151.88,-15 141.88,-11.5 141.88,-18.5"/>
</a>
</g>
</g>
<!-- Node3 -->
<g id="Node000003" class="node">
<title>Node3</title>
<g id="a_Node000003"><a xlink:href="group__core__modules.html#ga7a783f53ce55847f0bb02d73fdcf7bef" target="_top" xlink:title="Print a string in multiple lines.">
<polygon fill="white" stroke="#666666" points="459,-24.5 300,-24.5 300,-5.5 459,-5.5 459,-24.5"/>
<text text-anchor="middle" x="379.5" y="-12.5" font-family="Helvetica,sans-Serif" font-size="10.00">charpak_mod::wordwrapprint</text>
</a>
</g>
</g>
<!-- Node2&#45;&gt;Node3 -->
<g id="edge2_Node000002_Node000003" class="edge">
<title>Node2&#45;&gt;Node3</title>
<g id="a_edge2_Node000002_Node000003"><a xlink:title=" ">
<path fill="none" stroke="#63b8ff" d="M264.03,-15C272.23,-15 280.85,-15 289.54,-15"/>
<polygon fill="#63b8ff" stroke="#63b8ff" points="289.73,-18.5 299.73,-15 289.73,-11.5 289.73,-18.5"/>
</a>
</g>
</g>
<!-- Node4 -->
<g id="Node000004" class="node">
<title>Node4</title>
<g id="a_Node000004"><a xlink:href="group__core__modules.html#ga475a6d195c345c6aae7087b6f83520cf" target="_top" xlink:title="Count the number of times a character appears in a string.">
<polygon fill="white" stroke="#666666" points="618,-24.5 495,-24.5 495,-5.5 618,-5.5 618,-24.5"/>
<text text-anchor="middle" x="556.5" y="-12.5" font-family="Helvetica,sans-Serif" font-size="10.00">charpak_mod::cntmat</text>
</a>
</g>
</g>
<!-- Node3&#45;&gt;Node4 -->
<g id="edge3_Node000003_Node000004" class="edge">
<title>Node3&#45;&gt;Node4</title>
<g id="a_edge3_Node000003_Node000004"><a xlink:title=" ">
<path fill="none" stroke="#63b8ff" d="M459.04,-15C467.57,-15 476.21,-15 484.64,-15"/>
<polygon fill="#63b8ff" stroke="#63b8ff" points="484.79,-18.5 494.79,-15 484.79,-11.5 484.79,-18.5"/>
</a>
</g>
</g>
</g>
</svg>
