<?xml version="1.0" encoding="UTF-8" standalone="no"?>
<!DOCTYPE svg PUBLIC "-//W3C//DTD SVG 1.1//EN"
 "http://www.w3.org/Graphics/SVG/1.1/DTD/svg11.dtd">
<!-- Generated by graphviz version 2.43.0 (0)
 -->
<!-- Title: ccpr_scheme_gong03_mod::ccpr_scheme_gong03 Pages: 1 -->
<svg width="352pt" height="152pt"
 viewBox="0.00 0.00 352.00 152.00" xmlns="http://www.w3.org/2000/svg" xmlns:xlink="http://www.w3.org/1999/xlink">
<g id="graph0" class="graph" transform="scale(1 1) rotate(0) translate(4 148)">
<title>ccpr_scheme_gong03_mod::ccpr_scheme_gong03</title>
<!-- Node1 -->
<g id="Node000001" class="node">
<title>Node1</title>
<g id="a_Node000001"><a xlink:title="Run the Gong Sea Salt Emission scheme.">
<polygon fill="#999999" stroke="#666666" points="155,-78 0,-78 0,-48 155,-48 155,-78"/>
<text text-anchor="start" x="8" y="-66" font-family="Helvetica,sans-Serif" font-size="10.00">ccpr_scheme_gong03</text>
<text text-anchor="middle" x="77.5" y="-55" font-family="Helvetica,sans-Serif" font-size="10.00">_mod::ccpr_scheme_gong03</text>
</a>
</g>
</g>
<!-- Node2 -->
<g id="Node000002" class="node">
<title>Node2</title>
<g id="a_Node000002"><a xlink:href="group__catchem__seasalt__process.html#ga17e279a7fa7b1e2281777d6d6ad5ab81" target="_top" xlink:title="Jeagle et al. 2012 SST correction.">
<polygon fill="white" stroke="#666666" points="339,-144 196,-144 196,-114 339,-114 339,-144"/>
<text text-anchor="start" x="204" y="-132" font-family="Helvetica,sans-Serif" font-size="10.00">ccpr_seasalt_common</text>
<text text-anchor="middle" x="267.5" y="-121" font-family="Helvetica,sans-Serif" font-size="10.00">_mod::jeaglesstcorrection</text>
</a>
</g>
</g>
<!-- Node1&#45;&gt;Node2 -->
<g id="edge1_Node000001_Node000002" class="edge">
<title>Node1&#45;&gt;Node2</title>
<g id="a_edge1_Node000001_Node000002"><a xlink:title=" ">
<path fill="none" stroke="#63b8ff" d="M117.38,-78.06C138.97,-86.28 166.37,-96.49 191,-105 196.58,-106.93 202.41,-108.88 208.25,-110.8"/>
<polygon fill="#63b8ff" stroke="#63b8ff" points="207.46,-114.23 218.05,-113.99 209.62,-107.57 207.46,-114.23"/>
</a>
</g>
</g>
<!-- Node3 -->
<g id="Node000003" class="node">
<title>Node3</title>
<g id="a_Node000003"><a xlink:href="group__catchem__seasalt__process.html#gac87a23a565b881d337429c359072736a" target="_top" xlink:title="Function to compute sea salt emissions following the Gong style parameterization.">
<polygon fill="white" stroke="#666666" points="344,-78 191,-78 191,-48 344,-48 344,-78"/>
<text text-anchor="start" x="199" y="-66" font-family="Helvetica,sans-Serif" font-size="10.00">ccpr_seasalt_common</text>
<text text-anchor="middle" x="267.5" y="-55" font-family="Helvetica,sans-Serif" font-size="10.00">_mod::seasaltemissiongong</text>
</a>
</g>
</g>
<!-- Node1&#45;&gt;Node3 -->
<g id="edge2_Node000001_Node000003" class="edge">
<title>Node1&#45;&gt;Node3</title>
<g id="a_edge2_Node000001_Node000003"><a xlink:title=" ">
<path fill="none" stroke="#63b8ff" d="M155.24,-63C163.61,-63 172.17,-63 180.65,-63"/>
<polygon fill="#63b8ff" stroke="#63b8ff" points="180.92,-66.5 190.92,-63 180.92,-59.5 180.92,-66.5"/>
</a>
</g>
</g>
<!-- Node4 -->
<g id="Node000004" class="node">
<title>Node4</title>
<g id="a_Node000004"><a xlink:href="group__catchem__seasalt__process.html#ga9591e00ed2cbd88486efc31256a042be" target="_top" xlink:title="Calculate the weibull distribution for 10m wind speed (u10, v10)">
<polygon fill="white" stroke="#666666" points="337.5,-30 197.5,-30 197.5,0 337.5,0 337.5,-30"/>
<text text-anchor="start" x="205.5" y="-18" font-family="Helvetica,sans-Serif" font-size="10.00">ccpr_seasalt_common</text>
<text text-anchor="middle" x="267.5" y="-7" font-family="Helvetica,sans-Serif" font-size="10.00">_mod::weibulldistribution</text>
</a>
</g>
</g>
<!-- Node1&#45;&gt;Node4 -->
<g id="edge4_Node000001_Node000004" class="edge">
<title>Node1&#45;&gt;Node4</title>
<g id="a_edge4_Node000001_Node000004"><a xlink:title=" ">
<path fill="none" stroke="#63b8ff" d="M137.47,-47.94C156.63,-43.05 178.06,-37.58 197.86,-32.52"/>
<polygon fill="#63b8ff" stroke="#63b8ff" points="198.92,-35.87 207.74,-30 197.19,-29.09 198.92,-35.87"/>
</a>
</g>
</g>
<!-- Node3&#45;&gt;Node3 -->
<g id="edge3_Node000003_Node000003" class="edge">
<title>Node3&#45;&gt;Node3</title>
<g id="a_edge3_Node000003_Node000003"><a xlink:title=" ">
<path fill="none" stroke="#63b8ff" d="M234.1,-78.28C226.68,-87.41 237.81,-96 267.5,-96 285.13,-96 296.21,-92.97 300.76,-88.6"/>
<polygon fill="#63b8ff" stroke="#63b8ff" points="304.26,-88.32 300.9,-78.28 297.26,-88.23 304.26,-88.32"/>
</a>
</g>
</g>
</g>
</svg>
