<?xml version="1.0" encoding="UTF-8" standalone="no"?>
<!DOCTYPE svg PUBLIC "-//W3C//DTD SVG 1.1//EN"
 "http://www.w3.org/Graphics/SVG/1.1/DTD/svg11.dtd">
<!-- Generated by graphviz version 2.43.0 (0)
 -->
<!-- Title: init_mod::init_diag Pages: 1 -->
<svg width="769pt" height="56pt"
 viewBox="0.00 0.00 769.00 55.50" xmlns="http://www.w3.org/2000/svg" xmlns:xlink="http://www.w3.org/1999/xlink">
<g id="graph0" class="graph" transform="scale(1 1) rotate(0) translate(4 51.5)">
<title>init_mod::init_diag</title>
<polygon fill="white" stroke="transparent" points="-4,4 -4,-51.5 765,-51.5 765,4 -4,4"/>
<!-- Node1 -->
<g id="node1" class="node">
<title>Node1</title>
<g id="a_node1"><a xlink:title="Initialize the diag state.">
<polygon fill="#bfbfbf" stroke="black" points="0,-28 0,-47 107,-47 107,-28 0,-28"/>
<text text-anchor="middle" x="53.5" y="-35" font-family="Helvetica,sans-Serif" font-size="10.00">init_mod::init_diag</text>
</a>
</g>
</g>
<!-- Node2 -->
<g id="node2" class="node">
<title>Node2</title>
<g id="a_node2"><a xlink:href="group__core__modules.html#ga51caf927c8403a431dd55956762ad350" target="_top" xlink:title="CC_Error.">
<polygon fill="white" stroke="black" points="295,-28 295,-47 407,-47 407,-28 295,-28"/>
<text text-anchor="middle" x="351" y="-35" font-family="Helvetica,sans-Serif" font-size="10.00">error_mod::cc_error</text>
</a>
</g>
</g>
<!-- Node1&#45;&gt;Node2 -->
<g id="edge1" class="edge">
<title>Node1&#45;&gt;Node2</title>
<path fill="none" stroke="midnightblue" d="M107.37,-39.59C119.1,-39.97 131.47,-40.3 143,-40.5 194.55,-41.37 207.45,-41.35 259,-40.5 267.29,-40.36 276.01,-40.16 284.63,-39.91"/>
<polygon fill="midnightblue" stroke="midnightblue" points="284.77,-43.41 294.67,-39.62 284.57,-36.41 284.77,-43.41"/>
</g>
<!-- Node5 -->
<g id="node5" class="node">
<title>Node5</title>
<g id="a_node5"><a xlink:href="group__core__modules.html#gabf3ec0431a95ac83746d3880f64d23f7" target="_top" xlink:title="Allocate memory for the diagnostic state variables.">
<polygon fill="white" stroke="black" points="143,-0.5 143,-30.5 259,-30.5 259,-0.5 143,-0.5"/>
<text text-anchor="start" x="151" y="-18.5" font-family="Helvetica,sans-Serif" font-size="10.00">diagstate_mod::diag</text>
<text text-anchor="middle" x="201" y="-7.5" font-family="Helvetica,sans-Serif" font-size="10.00">_allocate</text>
</a>
</g>
</g>
<!-- Node1&#45;&gt;Node5 -->
<g id="edge4" class="edge">
<title>Node1&#45;&gt;Node5</title>
<path fill="none" stroke="midnightblue" d="M107.03,-29.56C115.34,-28.3 124.03,-26.99 132.62,-25.69"/>
<polygon fill="midnightblue" stroke="midnightblue" points="133.26,-29.13 142.63,-24.18 132.21,-22.21 133.26,-29.13"/>
</g>
<!-- Node3 -->
<g id="node3" class="node">
<title>Node3</title>
<g id="a_node3"><a xlink:href="group__core__modules.html#ga3890886a8d25cb4253fe2706c44e6e78" target="_top" xlink:title="Print a string in multiple lines.">
<polygon fill="white" stroke="black" points="443,-28 443,-47 602,-47 602,-28 443,-28"/>
<text text-anchor="middle" x="522.5" y="-35" font-family="Helvetica,sans-Serif" font-size="10.00">charpak_mod::wordwrapprint</text>
</a>
</g>
</g>
<!-- Node2&#45;&gt;Node3 -->
<g id="edge2" class="edge">
<title>Node2&#45;&gt;Node3</title>
<path fill="none" stroke="midnightblue" d="M407.03,-37.5C415.23,-37.5 423.85,-37.5 432.54,-37.5"/>
<polygon fill="midnightblue" stroke="midnightblue" points="432.73,-41 442.73,-37.5 432.73,-34 432.73,-41"/>
</g>
<!-- Node4 -->
<g id="node4" class="node">
<title>Node4</title>
<g id="a_node4"><a xlink:href="group__core__modules.html#ga36b722fb300c543f0eb910116bb28973" target="_top" xlink:title="Count the number of times a character appears in a string.">
<polygon fill="white" stroke="black" points="638,-28 638,-47 761,-47 761,-28 638,-28"/>
<text text-anchor="middle" x="699.5" y="-35" font-family="Helvetica,sans-Serif" font-size="10.00">charpak_mod::cntmat</text>
</a>
</g>
</g>
<!-- Node3&#45;&gt;Node4 -->
<g id="edge3" class="edge">
<title>Node3&#45;&gt;Node4</title>
<path fill="none" stroke="midnightblue" d="M602.04,-37.5C610.57,-37.5 619.21,-37.5 627.64,-37.5"/>
<polygon fill="midnightblue" stroke="midnightblue" points="627.79,-41 637.79,-37.5 627.79,-34 627.79,-41"/>
</g>
<!-- Node5&#45;&gt;Node2 -->
<g id="edge5" class="edge">
<title>Node5&#45;&gt;Node2</title>
<path fill="none" stroke="midnightblue" d="M259.22,-24.01C267.64,-25.26 276.36,-26.55 284.93,-27.83"/>
<polygon fill="midnightblue" stroke="midnightblue" points="284.47,-31.3 294.88,-29.31 285.5,-24.37 284.47,-31.3"/>
</g>
</g>
</svg>
