<?xml version="1.0" encoding="UTF-8" standalone="no"?>
<!DOCTYPE svg PUBLIC "-//W3C//DTD SVG 1.1//EN"
 "http://www.w3.org/Graphics/SVG/1.1/DTD/svg11.dtd">
<!-- Generated by graphviz version 2.43.0 (0)
 -->
<!-- Title: charpak_mod::strsplit Pages: 1 -->
<svg width="445pt" height="64pt"
 viewBox="0.00 0.00 445.00 64.00" xmlns="http://www.w3.org/2000/svg" xmlns:xlink="http://www.w3.org/1999/xlink">
<g id="graph0" class="graph" transform="scale(1 1) rotate(0) translate(4 60)">
<title>charpak_mod::strsplit</title>
<!-- Node1 -->
<g id="Node000001" class="node">
<title>Node1</title>
<g id="a_Node000001"><a xlink:title="Split a string into substrings.">
<polygon fill="#999999" stroke="#666666" points="122,-37 0,-37 0,-18 122,-18 122,-37"/>
<text text-anchor="middle" x="61" y="-25" font-family="Helvetica,sans-Serif" font-size="10.00">charpak_mod::strsplit</text>
</a>
</g>
</g>
<!-- Node2 -->
<g id="Node000002" class="node">
<title>Node2</title>
<g id="a_Node000002"><a xlink:href="group__core__modules.html#ga1849bf292b78e7b221ebb9da47db21bb" target="_top" xlink:title="Extract text from a string.">
<polygon fill="white" stroke="#666666" points="276,-37 158,-37 158,-18 276,-18 276,-37"/>
<text text-anchor="middle" x="217" y="-25" font-family="Helvetica,sans-Serif" font-size="10.00">charpak_mod::txtext</text>
</a>
</g>
</g>
<!-- Node1&#45;&gt;Node2 -->
<g id="edge1_Node000001_Node000002" class="edge">
<title>Node1&#45;&gt;Node2</title>
<g id="a_edge1_Node000001_Node000002"><a xlink:title=" ">
<path fill="none" stroke="#63b8ff" d="M122.42,-27.5C130.69,-27.5 139.23,-27.5 147.62,-27.5"/>
<polygon fill="#63b8ff" stroke="#63b8ff" points="147.77,-31 157.77,-27.5 147.77,-24 147.77,-31"/>
</a>
</g>
</g>
<!-- Node3 -->
<g id="Node000003" class="node">
<title>Node3</title>
<g id="a_Node000003"><a xlink:href="group__core__modules.html#ga475a6d195c345c6aae7087b6f83520cf" target="_top" xlink:title="Count the number of times a character appears in a string.">
<polygon fill="white" stroke="#666666" points="436,-56 313,-56 313,-37 436,-37 436,-56"/>
<text text-anchor="middle" x="374.5" y="-44" font-family="Helvetica,sans-Serif" font-size="10.00">charpak_mod::cntmat</text>
</a>
</g>
</g>
<!-- Node2&#45;&gt;Node3 -->
<g id="edge2_Node000002_Node000003" class="edge">
<title>Node2&#45;&gt;Node3</title>
<g id="a_edge2_Node000002_Node000003"><a xlink:title=" ">
<path fill="none" stroke="#63b8ff" d="M276.34,-34.63C284.89,-35.67 293.77,-36.76 302.54,-37.83"/>
<polygon fill="#63b8ff" stroke="#63b8ff" points="302.4,-41.34 312.75,-39.08 303.25,-34.39 302.4,-41.34"/>
</a>
</g>
</g>
<!-- Node4 -->
<g id="Node000004" class="node">
<title>Node4</title>
<g id="a_Node000004"><a xlink:href="group__core__modules.html#gab3380e435c78f855e451be2b17e7cd9e" target="_top" xlink:title="Copy characters from one string to another.">
<polygon fill="white" stroke="#666666" points="437,-19 312,-19 312,0 437,0 437,-19"/>
<text text-anchor="middle" x="374.5" y="-7" font-family="Helvetica,sans-Serif" font-size="10.00">charpak_mod::copytxt</text>
</a>
</g>
</g>
<!-- Node2&#45;&gt;Node4 -->
<g id="edge3_Node000002_Node000004" class="edge">
<title>Node2&#45;&gt;Node4</title>
<g id="a_edge3_Node000002_Node000004"><a xlink:title=" ">
<path fill="none" stroke="#63b8ff" d="M276.34,-20.75C284.71,-19.78 293.39,-18.77 301.97,-17.78"/>
<polygon fill="#63b8ff" stroke="#63b8ff" points="302.44,-21.25 311.97,-16.62 301.63,-14.3 302.44,-21.25"/>
</a>
</g>
</g>
</g>
</svg>
