<?xml version="1.0" encoding="UTF-8" standalone="no"?>
<!DOCTYPE svg PUBLIC "-//W3C//DTD SVG 1.1//EN"
 "http://www.w3.org/Graphics/SVG/1.1/DTD/svg11.dtd">
<!-- Generated by graphviz version 2.43.0 (0)
 -->
<!-- Title: ccpr_plumerise_mod::ccpr_plumerise_run Pages: 1 -->
<svg width="675pt" height="148pt"
 viewBox="0.00 0.00 675.00 147.50" xmlns="http://www.w3.org/2000/svg" xmlns:xlink="http://www.w3.org/1999/xlink">
<g id="graph0" class="graph" transform="scale(1 1) rotate(0) translate(4 143.5)">
<title>ccpr_plumerise_mod::ccpr_plumerise_run</title>
<!-- Node1 -->
<g id="Node000001" class="node">
<title>Node1</title>
<g id="a_Node000001"><a xlink:title="Run the Plumerise scheme.">
<polygon fill="#999999" stroke="#666666" points="118,-102 0,-102 0,-72 118,-72 118,-102"/>
<text text-anchor="start" x="8" y="-90" font-family="Helvetica,sans-Serif" font-size="10.00">ccpr_plumerise_mod</text>
<text text-anchor="middle" x="59" y="-79" font-family="Helvetica,sans-Serif" font-size="10.00">::ccpr_plumerise_run</text>
</a>
</g>
</g>
<!-- Node2 -->
<g id="Node000002" class="node">
<title>Node2</title>
<g id="a_Node000002"><a xlink:href="group__core__modules.html#gadf8890c67762a792dcff25da9d3e10f7" target="_top" xlink:title="CC_Error.">
<polygon fill="white" stroke="#666666" points="289.5,-139.5 177.5,-139.5 177.5,-120.5 289.5,-120.5 289.5,-139.5"/>
<text text-anchor="middle" x="233.5" y="-127.5" font-family="Helvetica,sans-Serif" font-size="10.00">error_mod::cc_error</text>
</a>
</g>
</g>
<!-- Node1&#45;&gt;Node2 -->
<g id="edge1_Node000001_Node000002" class="edge">
<title>Node1&#45;&gt;Node2</title>
<g id="a_edge1_Node000001_Node000002"><a xlink:title=" ">
<path fill="none" stroke="#63b8ff" d="M118.14,-101.96C130,-104.98 142.39,-108.11 154,-111 163.29,-113.31 173.21,-115.74 182.76,-118.06"/>
<polygon fill="#63b8ff" stroke="#63b8ff" points="182,-121.48 192.54,-120.43 183.65,-114.67 182,-121.48"/>
</a>
</g>
</g>
<!-- Node5 -->
<g id="Node000005" class="node">
<title>Node5</title>
<g id="a_Node000005"><a xlink:href="group__catchem__plumerise__process.html#gad1f6d7aee22b09f080f05877916f5507" target="_top" xlink:title="Computes the final effective plume centerline height.">
<polygon fill="white" stroke="#666666" points="313,-102 154,-102 154,-72 313,-72 313,-102"/>
<text text-anchor="start" x="162" y="-90" font-family="Helvetica,sans-Serif" font-size="10.00">ccpr_scheme_briggs</text>
<text text-anchor="middle" x="233.5" y="-79" font-family="Helvetica,sans-Serif" font-size="10.00">_mod::ccpr_briggs_plumerise</text>
</a>
</g>
</g>
<!-- Node1&#45;&gt;Node5 -->
<g id="edge4_Node000001_Node000005" class="edge">
<title>Node1&#45;&gt;Node5</title>
<g id="a_edge4_Node000001_Node000005"><a xlink:title=" ">
<path fill="none" stroke="#63b8ff" d="M118.4,-87C126.62,-87 135.22,-87 143.85,-87"/>
<polygon fill="#63b8ff" stroke="#63b8ff" points="143.97,-90.5 153.97,-87 143.97,-83.5 143.97,-90.5"/>
</a>
</g>
</g>
<!-- Node6 -->
<g id="Node000006" class="node">
<title>Node6</title>
<g id="a_Node000006"><a xlink:href="group__catchem__plumerise__process.html#gab428b8a3c4c62505800584c7f50b386f" target="_top" xlink:title="Find the plume height index.">
<polygon fill="white" stroke="#666666" points="306.5,-54 160.5,-54 160.5,-24 306.5,-24 306.5,-54"/>
<text text-anchor="start" x="168.5" y="-42" font-family="Helvetica,sans-Serif" font-size="10.00">ccpr_scheme_sofiev</text>
<text text-anchor="middle" x="233.5" y="-31" font-family="Helvetica,sans-Serif" font-size="10.00">_mod::ccpr_sofiev_plmrise</text>
</a>
</g>
</g>
<!-- Node1&#45;&gt;Node6 -->
<g id="edge5_Node000001_Node000006" class="edge">
<title>Node1&#45;&gt;Node6</title>
<g id="a_edge5_Node000001_Node000006"><a xlink:title=" ">
<path fill="none" stroke="#63b8ff" d="M114.11,-71.94C131.45,-67.12 150.81,-61.73 168.77,-56.73"/>
<polygon fill="#63b8ff" stroke="#63b8ff" points="169.89,-60.06 178.59,-54 168.01,-53.31 169.89,-60.06"/>
</a>
</g>
</g>
<!-- Node3 -->
<g id="Node000003" class="node">
<title>Node3</title>
<g id="a_Node000003"><a xlink:href="group__core__modules.html#ga7a783f53ce55847f0bb02d73fdcf7bef" target="_top" xlink:title="Print a string in multiple lines.">
<polygon fill="white" stroke="#666666" points="508,-139.5 349,-139.5 349,-120.5 508,-120.5 508,-139.5"/>
<text text-anchor="middle" x="428.5" y="-127.5" font-family="Helvetica,sans-Serif" font-size="10.00">charpak_mod::wordwrapprint</text>
</a>
</g>
</g>
<!-- Node2&#45;&gt;Node3 -->
<g id="edge2_Node000002_Node000003" class="edge">
<title>Node2&#45;&gt;Node3</title>
<g id="a_edge2_Node000002_Node000003"><a xlink:title=" ">
<path fill="none" stroke="#63b8ff" d="M289.55,-130C304.86,-130 321.9,-130 338.63,-130"/>
<polygon fill="#63b8ff" stroke="#63b8ff" points="338.99,-133.5 348.99,-130 338.99,-126.5 338.99,-133.5"/>
</a>
</g>
</g>
<!-- Node4 -->
<g id="Node000004" class="node">
<title>Node4</title>
<g id="a_Node000004"><a xlink:href="group__core__modules.html#ga475a6d195c345c6aae7087b6f83520cf" target="_top" xlink:title="Count the number of times a character appears in a string.">
<polygon fill="white" stroke="#666666" points="667,-139.5 544,-139.5 544,-120.5 667,-120.5 667,-139.5"/>
<text text-anchor="middle" x="605.5" y="-127.5" font-family="Helvetica,sans-Serif" font-size="10.00">charpak_mod::cntmat</text>
</a>
</g>
</g>
<!-- Node3&#45;&gt;Node4 -->
<g id="edge3_Node000003_Node000004" class="edge">
<title>Node3&#45;&gt;Node4</title>
<g id="a_edge3_Node000003_Node000004"><a xlink:title=" ">
<path fill="none" stroke="#63b8ff" d="M508.04,-130C516.57,-130 525.21,-130 533.64,-130"/>
<polygon fill="#63b8ff" stroke="#63b8ff" points="533.79,-133.5 543.79,-130 533.79,-126.5 533.79,-133.5"/>
</a>
</g>
</g>
<!-- Node7 -->
<g id="Node000007" class="node">
<title>Node7</title>
<g id="a_Node000007"><a xlink:href="group__catchem__plumerise__process.html#ga2cd9d766689a53f13141891438fe9d8d" target="_top" xlink:title="Distribute emissions around a given height.">
<polygon fill="white" stroke="#666666" points="506.5,-78 350.5,-78 350.5,-48 506.5,-48 506.5,-78"/>
<text text-anchor="start" x="358.5" y="-66" font-family="Helvetica,sans-Serif" font-size="10.00">ccpr_scheme_sofiev</text>
<text text-anchor="middle" x="428.5" y="-55" font-family="Helvetica,sans-Serif" font-size="10.00">_mod::ccpr_sofiev_distribute</text>
</a>
</g>
</g>
<!-- Node6&#45;&gt;Node7 -->
<g id="edge6_Node000006_Node000007" class="edge">
<title>Node6&#45;&gt;Node7</title>
<g id="a_edge6_Node000006_Node000007"><a xlink:title=" ">
<path fill="none" stroke="#63b8ff" d="M306.64,-47.97C317.54,-49.33 328.89,-50.74 340.07,-52.13"/>
<polygon fill="#63b8ff" stroke="#63b8ff" points="339.92,-55.64 350.28,-53.4 340.79,-48.69 339.92,-55.64"/>
</a>
</g>
</g>
<!-- Node8 -->
<g id="Node000008" class="node">
<title>Node8</title>
<g id="a_Node000008"><a xlink:href="group__catchem__plumerise__process.html#ga570e08e300b22e962e19e77efc60474e" target="_top" xlink:title="Sofiev Plume Rise Algorithm.">
<polygon fill="white" stroke="#666666" points="492.5,-30 364.5,-30 364.5,0 492.5,0 492.5,-30"/>
<text text-anchor="start" x="372.5" y="-18" font-family="Helvetica,sans-Serif" font-size="10.00">ccpr_scheme_sofiev</text>
<text text-anchor="middle" x="428.5" y="-7" font-family="Helvetica,sans-Serif" font-size="10.00">_mod::plumerisesofiev</text>
</a>
</g>
</g>
<!-- Node6&#45;&gt;Node8 -->
<g id="edge7_Node000006_Node000008" class="edge">
<title>Node6&#45;&gt;Node8</title>
<g id="a_edge7_Node000006_Node000008"><a xlink:title=" ">
<path fill="none" stroke="#63b8ff" d="M306.64,-30.03C322.19,-28.1 338.63,-26.05 354.22,-24.11"/>
<polygon fill="#63b8ff" stroke="#63b8ff" points="354.83,-27.56 364.32,-22.86 353.97,-20.62 354.83,-27.56"/>
</a>
</g>
</g>
</g>
</svg>
