<?xml version="1.0" encoding="UTF-8" standalone="no"?>
<!DOCTYPE svg PUBLIC "-//W3C//DTD SVG 1.1//EN"
 "http://www.w3.org/Graphics/SVG/1.1/DTD/svg11.dtd">
<!-- Generated by graphviz version 2.43.0 (0)
 -->
<!-- Title: error_mod::cc_error Pages: 1 -->
<svg width="474pt" height="27pt"
 viewBox="0.00 0.00 474.00 27.00" xmlns="http://www.w3.org/2000/svg" xmlns:xlink="http://www.w3.org/1999/xlink">
<g id="graph0" class="graph" transform="scale(1 1) rotate(0) translate(4 23)">
<title>error_mod::cc_error</title>
<!-- Node1 -->
<g id="Node000001" class="node">
<title>Node1</title>
<g id="a_Node000001"><a xlink:title="CC_Error.">
<polygon fill="#999999" stroke="#666666" points="112,-19 0,-19 0,0 112,0 112,-19"/>
<text text-anchor="middle" x="56" y="-7" font-family="Helvetica,sans-Serif" font-size="10.00">error_mod::cc_error</text>
</a>
</g>
</g>
<!-- Node2 -->
<g id="Node000002" class="node">
<title>Node2</title>
<g id="a_Node000002"><a xlink:href="group__core__modules.html#ga7a783f53ce55847f0bb02d73fdcf7bef" target="_top" xlink:title="Print a string in multiple lines.">
<polygon fill="white" stroke="#666666" points="307,-19 148,-19 148,0 307,0 307,-19"/>
<text text-anchor="middle" x="227.5" y="-7" font-family="Helvetica,sans-Serif" font-size="10.00">charpak_mod::wordwrapprint</text>
</a>
</g>
</g>
<!-- Node1&#45;&gt;Node2 -->
<g id="edge1_Node000001_Node000002" class="edge">
<title>Node1&#45;&gt;Node2</title>
<g id="a_edge1_Node000001_Node000002"><a xlink:title=" ">
<path fill="none" stroke="#63b8ff" d="M112.03,-9.5C120.23,-9.5 128.85,-9.5 137.54,-9.5"/>
<polygon fill="#63b8ff" stroke="#63b8ff" points="137.73,-13 147.73,-9.5 137.73,-6 137.73,-13"/>
</a>
</g>
</g>
<!-- Node3 -->
<g id="Node000003" class="node">
<title>Node3</title>
<g id="a_Node000003"><a xlink:href="group__core__modules.html#ga475a6d195c345c6aae7087b6f83520cf" target="_top" xlink:title="Count the number of times a character appears in a string.">
<polygon fill="white" stroke="#666666" points="466,-19 343,-19 343,0 466,0 466,-19"/>
<text text-anchor="middle" x="404.5" y="-7" font-family="Helvetica,sans-Serif" font-size="10.00">charpak_mod::cntmat</text>
</a>
</g>
</g>
<!-- Node2&#45;&gt;Node3 -->
<g id="edge2_Node000002_Node000003" class="edge">
<title>Node2&#45;&gt;Node3</title>
<g id="a_edge2_Node000002_Node000003"><a xlink:title=" ">
<path fill="none" stroke="#63b8ff" d="M307.04,-9.5C315.57,-9.5 324.21,-9.5 332.64,-9.5"/>
<polygon fill="#63b8ff" stroke="#63b8ff" points="332.79,-13 342.79,-9.5 332.79,-6 332.79,-13"/>
</a>
</g>
</g>
</g>
</svg>
