<?xml version="1.0" encoding="UTF-8" standalone="no"?>
<!DOCTYPE svg PUBLIC "-//W3C//DTD SVG 1.1//EN"
 "http://www.w3.org/Graphics/SVG/1.1/DTD/svg11.dtd">
<!-- Generated by graphviz version 2.43.0 (0)
 -->
<!-- Title: charpak_mod::txtext Pages: 1 -->
<svg width="287pt" height="64pt"
 viewBox="0.00 0.00 287.00 64.00" xmlns="http://www.w3.org/2000/svg" xmlns:xlink="http://www.w3.org/1999/xlink">
<g id="graph0" class="graph" transform="scale(1 1) rotate(0) translate(4 60)">
<title>charpak_mod::txtext</title>
<!-- Node1 -->
<g id="Node000001" class="node">
<title>Node1</title>
<g id="a_Node000001"><a xlink:title="Extract text from a string.">
<polygon fill="#999999" stroke="#666666" points="118,-37 0,-37 0,-18 118,-18 118,-37"/>
<text text-anchor="middle" x="59" y="-25" font-family="Helvetica,sans-Serif" font-size="10.00">charpak_mod::txtext</text>
</a>
</g>
</g>
<!-- Node2 -->
<g id="Node000002" class="node">
<title>Node2</title>
<g id="a_Node000002"><a xlink:href="group__core__modules.html#ga475a6d195c345c6aae7087b6f83520cf" target="_top" xlink:title="Count the number of times a character appears in a string.">
<polygon fill="white" stroke="#666666" points="278,-56 155,-56 155,-37 278,-37 278,-56"/>
<text text-anchor="middle" x="216.5" y="-44" font-family="Helvetica,sans-Serif" font-size="10.00">charpak_mod::cntmat</text>
</a>
</g>
</g>
<!-- Node1&#45;&gt;Node2 -->
<g id="edge1_Node000001_Node000002" class="edge">
<title>Node1&#45;&gt;Node2</title>
<g id="a_edge1_Node000001_Node000002"><a xlink:title=" ">
<path fill="none" stroke="#63b8ff" d="M118.34,-34.63C126.89,-35.67 135.77,-36.76 144.54,-37.83"/>
<polygon fill="#63b8ff" stroke="#63b8ff" points="144.4,-41.34 154.75,-39.08 145.25,-34.39 144.4,-41.34"/>
</a>
</g>
</g>
<!-- Node3 -->
<g id="Node000003" class="node">
<title>Node3</title>
<g id="a_Node000003"><a xlink:href="group__core__modules.html#gab3380e435c78f855e451be2b17e7cd9e" target="_top" xlink:title="Copy characters from one string to another.">
<polygon fill="white" stroke="#666666" points="279,-19 154,-19 154,0 279,0 279,-19"/>
<text text-anchor="middle" x="216.5" y="-7" font-family="Helvetica,sans-Serif" font-size="10.00">charpak_mod::copytxt</text>
</a>
</g>
</g>
<!-- Node1&#45;&gt;Node3 -->
<g id="edge2_Node000001_Node000003" class="edge">
<title>Node1&#45;&gt;Node3</title>
<g id="a_edge2_Node000001_Node000003"><a xlink:title=" ">
<path fill="none" stroke="#63b8ff" d="M118.34,-20.75C126.71,-19.78 135.39,-18.77 143.97,-17.78"/>
<polygon fill="#63b8ff" stroke="#63b8ff" points="144.44,-21.25 153.97,-16.62 143.63,-14.3 144.44,-21.25"/>
</a>
</g>
</g>
</g>
</svg>
